# This file is brought to you by Roblox Corporation
# Generated by Roblox Studio

mtllib naillength3.mtl

g Union1

v -30.772 6.1356 -43.233 
v -30.6684 6.1356 -43.1535 
v -30.6684 6.0356 -43.1535 
v -30.6684 6.1356 -43.1535 
v -30.772 6.1356 -43.233 
v -30.8925 6.1356 -43.283 
v -30.8925 6.1356 -43.283 
v -30.8925 6.0356 -43.283 
v -31.272 6.1356 -43.233 
v -31.1514 6.1356 -43.283 
v -31.272 6.0356 -43.233 
v -31.1514 6.1356 -43.283 
v -31.272 6.1356 -43.233 
v -31.022 6.1356 -43.3 
v -31.3755 6.1356 -43.1535 
v -31.3755 6.1356 -43.1535 
v -31.5049 6.1356 -42.6706 
v -31.522 6.1356 -42.8 
v -31.5049 6.0356 -42.6706 
v -31.522 6.1356 -42.8 
v -31.5049 6.1356 -42.6706 
v -31.3755 6.1356 -42.4464 
v -31.3755 6.1356 -42.4464 
v -31.455 6.1356 -42.55 
v -31.455 6.0356 -42.55 
v -31.455 6.1356 -42.55 
v -31.272 6.1356 -42.367 
v -31.3755 6.1356 -42.4464 
v -31.3755 6.0356 -42.4464 
v -31.272 6.1356 -42.367 
v -31.1514 6.1356 -42.317 
v -31.1514 6.0356 -42.317 
v -31.1514 6.1356 -42.317 
v -31.0219 6.1356 -42.3 
v -31.0219 6.0356 -42.3 
v -31.0219 6.1356 -42.3 
v -30.8926 6.1356 -42.317 
v -30.6684 6.1356 -43.1535 
v -30.5889 6.1356 -43.05 
v -30.6684 6.0356 -43.1535 
v -30.5889 6.1356 -43.05 
v -30.539 6.1356 -42.9294 
v -31.522 6.0356 -42.8 
v -31.5049 6.0356 -42.9294 
v -31.3755 6.0356 -42.4464 
v -31.272 6.0356 -42.367 
v -30.8926 6.0356 -42.317 
v -30.8926 6.1356 -42.317 
v -30.7719 6.0356 -42.367 
v -30.6684 6.0356 -42.4464 
v -30.6684 6.1356 -42.4464 
v -30.6684 6.1356 -42.4464 
v -30.6684 6.0356 -42.4464 
v -30.5889 6.0356 -42.55 
v -30.522 6.0356 -42.8 
v -30.522 6.1356 -42.8 
v -30.539 6.0356 -42.6706 
v -30.539 6.1356 -42.9294 
v -30.5889 6.0356 -43.05 
v -30.539 6.0356 -42.9294 
v -30.772 6.0356 -43.233 
v -31.022 6.0356 -43.3 
v -31.1514 6.0356 -43.283 
v -31.022 6.1356 -43.3 
v -31.5049 6.1356 -42.9294 
v -31.1427 4.5356 -42.8323 
v -31.1469 4.5356 -42.8 
v -31.1427 6.0356 -42.8323 
v -31.1469 4.5356 -42.8 
v -31.1427 4.5356 -42.8323 
v -31.1302 4.5356 -42.8625 
v -31.1302 4.5356 -42.8625 
v -31.1103 4.5356 -42.8884 
v -31.1103 6.0356 -42.8884 
v -31.1103 4.5356 -42.8884 
v -31.0845 4.5356 -42.9082 
v -31.0845 4.5356 -42.9082 
v -31.1103 4.5356 -42.8884 
v -31.1103 6.0356 -42.8884 
v -31.0543 4.5356 -42.9207 
v -31.0845 6.0356 -42.9082 
v -31.0543 4.5356 -42.9207 
v -31.0219 4.5356 -42.925 
v -31.0219 4.5356 -42.925 
v -31.0219 6.0356 -42.925 
v -30.9896 4.5356 -42.9207 
v -30.9896 4.5356 -42.9207 
v -30.9594 4.5356 -42.9082 
v -30.9594 4.5356 -42.9082 
v -30.9896 6.0356 -42.9207 
v -30.9336 4.5356 -42.8884 
v -30.9336 6.0356 -42.8884 
v -30.9336 4.5356 -42.8884 
v -30.9137 4.5356 -42.8625 
v -30.9336 4.5356 -42.8884 
v -30.9137 6.0356 -42.8625 
v -30.9137 4.5356 -42.8625 
v -30.9012 4.5356 -42.8323 
v -30.9012 4.5356 -42.8323 
v -30.8969 4.5356 -42.8 
v -30.9012 6.0356 -42.8323 
v -30.8969 4.5356 -42.8 
v -30.9012 4.5356 -42.7676 
v -30.8969 6.0356 -42.8 
v -30.9012 4.5356 -42.7676 
v -30.9137 4.5356 -42.7375 
v -30.9137 4.5356 -42.7375 
v -30.9137 6.0356 -42.7375 
v -30.9336 4.5356 -42.7116 
v -30.9336 4.5356 -42.7116 
v -30.9595 4.5356 -42.6917 
v -30.9336 4.5356 -42.7116 
v -30.9595 6.0356 -42.6917 
v -30.9595 4.5356 -42.6917 
v -30.9896 4.5356 -42.6793 
v -30.9896 4.5356 -42.6793 
v -31.0219 4.5356 -42.675 
v -30.9896 6.0356 -42.6793 
v -31.0219 4.5356 -42.675 
v -31.0543 4.5356 -42.6793 
v -31.0543 4.5356 -42.6793 
v -31.0543 6.0356 -42.6793 
v -31.0845 4.5356 -42.6917 
v -31.0845 4.5356 -42.6917 
v -31.1103 4.5356 -42.7116 
v -31.0845 6.0356 -42.6917 
v -31.1103 4.5356 -42.7116 
v -31.1302 4.5356 -42.7375 
v -31.1302 4.5356 -42.7375 
v -31.1103 4.5356 -42.7116 
v -31.1302 6.0356 -42.7375 
v -31.1427 4.5356 -42.7676 
v -31.1427 6.0356 -42.7676 
v -31.1427 4.5356 -42.7676 
v -31.455 6.0356 -43.05 
v -31.455 6.1356 -43.05 
v -31.5049 6.0356 -42.9294 
v -31.455 6.0356 -43.05 
v -31.1302 6.0356 -42.8625 
v -31.3755 6.0356 -43.1535 
v -31.3755 6.0356 -43.1535 
v -31.3755 6.0356 -43.1535 
v -31.272 6.0356 -43.233 
v -31.022 6.0356 -43.3 
v -30.8925 6.0356 -43.283 
v -30.772 6.0356 -43.233 
v -31.0219 6.0356 -42.925 
v -31.3755 6.1356 -43.1535 
v -31.1469 6.0356 -42.8 
v -31.1427 6.0356 -42.7676 
v -31.522 6.0356 -42.8 
v -31.1469 6.0356 -42.8 
v -31.1427 6.0356 -42.8323 
v -31.5049 6.0356 -42.6706 
v -31.272 6.0356 -42.367 
v -31.3755 6.0356 -42.4464 
v -31.0845 6.0356 -42.6917 
v -31.1302 6.0356 -42.7375 
v -31.455 6.0356 -42.55 
v -31.0543 6.0356 -42.6793 
v -30.8926 6.0356 -42.317 
v -31.0219 6.0356 -42.3 
v -30.9896 6.0356 -42.6793 
v -31.1514 6.0356 -42.317 
v -31.1103 6.0356 -42.7116 
v -31.1103 6.0356 -42.7116 
v -31.1103 6.0356 -42.7116 
v -31.0219 6.0356 -42.675 
v -30.6684 6.0356 -42.4464 
v -30.7719 6.0356 -42.367 
v -30.9595 6.0356 -42.6917 
v -30.7719 6.1356 -42.367 
v -31.0219 6.0356 -42.675 
v -30.5889 6.0356 -42.55 
v -30.9137 6.0356 -42.7375 
v -30.5889 6.1356 -42.55 
v -30.539 6.1356 -42.6706 
v -30.522 6.0356 -42.8 
v -30.539 6.0356 -42.6706 
v -30.8969 6.0356 -42.8 
v -30.9336 6.0356 -42.7116 
v -30.9336 6.0356 -42.7116 
v -30.9336 6.0356 -42.7116 
v -30.5889 6.0356 -43.05 
v -30.539 6.0356 -42.9294 
v -30.9012 6.0356 -42.8323 
v -30.9012 6.0356 -42.7676 
v -30.9012 6.0356 -42.7676 
v -30.9137 6.0356 -42.8625 
v -30.9336 6.0356 -42.8884 
v -30.9336 6.0356 -42.8884 
v -30.6684 6.0356 -43.1535 
v -30.9594 6.0356 -42.9082 
v -30.9594 6.0356 -42.9082 
v -30.9896 6.0356 -42.9207 
v -31.0543 6.0356 -42.9207 
v -31.0543 6.0356 -42.9207 
v -31.0845 6.0356 -42.9082 
v -31.1103 6.0356 -42.8884 
v -31.1302 6.0356 -42.8625 
v -31.455 6.1356 -43.05 
v -31.5049 6.1356 -42.9294 
v -30.5889 6.1356 -42.55 
v -30.7719 6.1356 -42.367 
v -30.6684 6.1356 -42.4464 
v -30.522 6.1356 -42.8 
v -30.539 6.1356 -42.6706 
v -31.1514 6.0356 -43.283 

vn 0.496063 0 -0.866142 
vn 0.708661 0 -0.708661 
vn 0.708661 0 -0.708661 
vn 0 1 0 
vn 0 1 0 
vn 0 1 0 
vn 0.259843 0 -0.968504 
vn 0.259843 0 -0.968504 
vn -0.503937 0 -0.866142 
vn -0.259843 0 -0.968504 
vn -0.503937 0 -0.866142 
vn 0 1 0 
vn 0 1 0 
vn 0 1 0 
vn -0.708661 0 -0.708661 
vn 0 1 0 
vn -0.968504 0 0.259843 
vn -1 0 0 
vn -0.968504 0 0.259843 
vn 0 1 0 
vn 0 1 0 
vn 0 1 0 
vn -0.708661 0 0.708661 
vn -0.866142 0 0.503937 
vn -0.866142 0 0.503937 
vn 0 1 0 
vn -0.496063 0 0.866142 
vn -0.708661 0 0.708661 
vn -0.708661 0 0.708661 
vn 0 1 0 
vn -0.259843 0 0.968504 
vn -0.259843 0 0.968504 
vn 0 1 0 
vn 0 0 1 
vn 0 0 1 
vn 0 1 0 
vn 0 1 0 
vn 0.708661 0 -0.708661 
vn 0.866142 0 -0.503937 
vn 0.708661 0 -0.708661 
vn 0 1 0 
vn 0 1 0 
vn -1 0 0 
vn -0.968504 0 -0.259843 
vn -0.708661 0 0.708661 
vn -0.496063 0 0.866142 
vn 0.259843 0 0.968504 
vn 0.259843 0 0.968504 
vn 0.503937 0 0.866142 
vn 0.708661 0 0.708661 
vn 0.708661 0 0.708661 
vn 0.708661 0 0.708661 
vn 0.708661 0 0.708661 
vn 0.866142 0 0.496063 
vn 1 0 0 
vn 1 0 0 
vn 0.968504 0 0.259843 
vn 0.968504 0 -0.259843 
vn 0.866142 0 -0.503937 
vn 0.968504 0 -0.259843 
vn 0.496063 0 -0.866142 
vn 0 0 -1 
vn -0.259843 0 -0.968504 
vn 0 0 -1 
vn -0.968504 0 -0.259843 
vn -0.968504 0 -0.259843 
vn -1 0 0 
vn -0.968504 0 -0.259843 
vn 0 -1 0 
vn 0 -1 0 
vn 0 -1 0 
vn -0.866142 0 -0.496063 
vn -0.708661 0 -0.708661 
vn -0.708661 0 -0.708661 
vn 0 -1 0 
vn 0 -1 0 
vn -0.503937 0 -0.866142 
vn -0.708661 0 -0.708661 
vn -0.708661 0 -0.708661 
vn -0.259843 0 -0.968504 
vn -0.503937 0 -0.866142 
vn 0 -1 0 
vn 0 -1 0 
vn 0 0 -1 
vn 0 0 -1 
vn 0.259843 0 -0.968504 
vn 0 -1 0 
vn 0 -1 0 
vn 0.503937 0 -0.866142 
vn 0.259843 0 -0.968504 
vn 0.708661 0 -0.708661 
vn 0.708661 0 -0.708661 
vn 0 -1 0 
vn 0.866142 0 -0.496063 
vn 0.708661 0 -0.708661 
vn 0.866142 0 -0.496063 
vn 0 -1 0 
vn 0 -1 0 
vn 0.968504 0 -0.259843 
vn 1 0 0 
vn 0.968504 0 -0.259843 
vn 0 -1 0 
vn 0.968504 0 0.259843 
vn 1 0 0 
vn 0 -1 0 
vn 0 -1 0 
vn 0.866142 0 0.503937 
vn 0.866142 0 0.496063 
vn 0.708661 0 0.708661 
vn 0 -1 0 
vn 0.496063 0 0.866142 
vn 0.708661 0 0.708661 
vn 0.496063 0 0.866142 
vn 0 -1 0 
vn 0 -1 0 
vn 0.259843 0 0.968504 
vn 0 0 1 
vn 0.259843 0 0.968504 
vn 0 -1 0 
vn 0 -1 0 
vn -0.259843 0 0.968504 
vn -0.259843 0 0.968504 
vn -0.503937 0 0.866142 
vn 0 -1 0 
vn -0.708661 0 0.708661 
vn -0.503937 0 0.866142 
vn 0 -1 0 
vn 0 -1 0 
vn -0.866142 0 0.496063 
vn -0.708661 0 0.708661 
vn -0.866142 0 0.503937 
vn -0.968504 0 0.259843 
vn -0.968504 0 0.259843 
vn 0 -1 0 
vn -0.866142 0 -0.496063 
vn -0.866142 0 -0.496063 
vn 0 -1 0 
vn 0 -1 0 
vn 0 -1 0 
vn -0.708661 0 -0.708661 
vn 0 -1 0 
vn -0.708661 0 -0.708661 
vn 0 -1 0 
vn 0 -1 0 
vn 0 -1 0 
vn 0 -1 0 
vn 0 -1 0 
vn -0.708661 0 -0.708661 
vn 0 -1 0 
vn 0 -1 0 
vn 0 -1 0 
vn -1 0 0 
vn 0 -1 0 
vn 0 -1 0 
vn 0 -1 0 
vn 0 -1 0 
vn 0 -1 0 
vn 0 -1 0 
vn 0 -1 0 
vn 0 -1 0 
vn 0 -1 0 
vn 0 -1 0 
vn 0 -1 0 
vn 0 -1 0 
vn -0.708661 0 0.708661 
vn -0.708661 0 0.708661 
vn 0 -1 0 
vn 0 -1 0 
vn 0 -1 0 
vn 0 -1 0 
vn 0 -1 0 
vn 0.503937 0 0.866142 
vn 0 0 1 
vn 0 -1 0 
vn 0 -1 0 
vn 0.866142 0 0.496063 
vn 0.968504 0 0.259843 
vn 0 -1 0 
vn 0 -1 0 
vn 0 -1 0 
vn 0.708661 0 0.708661 
vn 0.708661 0 0.708661 
vn 0 -1 0 
vn 0 -1 0 
vn 0 -1 0 
vn 0 -1 0 
vn 0 -1 0 
vn 0.968504 0 0.259843 
vn 0 -1 0 
vn 0 -1 0 
vn 0.708661 0 -0.708661 
vn 0 -1 0 
vn 0 -1 0 
vn 0.503937 0 -0.866142 
vn 0 -1 0 
vn 0 -1 0 
vn -0.259843 0 -0.968504 
vn 0 -1 0 
vn 0 -1 0 
vn -0.866142 0 -0.503937 
vn 0 1 0 
vn 0 1 0 
vn 0 1 0 
vn 0 1 0 
vn 0 1 0 
vn 0 1 0 
vn 0 1 0 
vn 0 -1 0 

vt 19.2174 -90.5609 
vt 19.2174 -90.6956 
vt 19.3474 -90.6956 
vt -127.978 -90.6956 
vt -127.875 -90.5609 
vt -127.81 -90.4042 
vt 19.2174 -90.4042 
vt 19.3474 -90.4042 
vt 19.2174 -89.9109 
vt 19.2174 -90.0677 
vt 19.3474 -89.9109 
vt -127.81 -90.0677 
vt -127.875 -89.9109 
vt -127.788 -90.2359 
vt 19.2174 -89.7763 
vt -127.978 -89.7763 
vt 19.2174 132.13 
vt 19.2174 131.962 
vt 19.3474 132.13 
vt -128.438 -89.5859 
vt -128.606 -89.6081 
vt -128.897 -89.7763 
vt 19.2174 132.422 
vt 19.2174 132.287 
vt 19.3474 132.287 
vt -128.763 -89.673 
vt -15.746 -89.9109 
vt -15.746 -89.7763 
vt -15.876 -89.7763 
vt -129.001 -89.9109 
vt -15.746 -90.0677 
vt -15.876 -90.0677 
vt -129.066 -90.0677 
vt -15.746 -90.2359 
vt -15.876 -90.2359 
vt -129.088 -90.2359 
vt -129.066 -90.4042 
vt -15.746 131.503 
vt -15.746 131.637 
vt -15.876 131.503 
vt -128.113 -90.7989 
vt -128.27 -90.8638 
vt 19.3474 131.962 
vt 19.3474 131.794 
vt 19.3474 132.422 
vt -15.876 -89.9109 
vt -15.876 -90.4042 
vt -15.746 -90.4042 
vt -15.876 -90.5609 
vt -15.876 -90.6956 
vt -15.746 -90.6956 
vt -15.746 132.422 
vt -15.876 132.422 
vt -15.876 132.287 
vt -15.876 131.962 
vt -15.746 131.962 
vt -15.876 132.13 
vt -15.746 131.794 
vt -15.876 131.637 
vt -15.876 131.794 
vt 19.3474 -90.5609 
vt 19.3474 -90.2359 
vt 19.3474 -90.0677 
vt 19.2174 -90.2359 
vt 19.2174 131.794 
vt 21.2974 131.92 
vt 21.2974 131.962 
vt 19.3474 131.92 
vt 131.909 -90.0734 
vt 131.867 -90.079 
vt 131.828 -90.0952 
vt 21.2974 131.881 
vt 21.2974 131.847 
vt 19.3474 131.847 
vt 131.794 -90.121 
vt 131.768 -90.1547 
vt 21.2974 -90.1547 
vt 21.2974 -90.121 
vt 19.3474 -90.121 
vt 21.2974 -90.1939 
vt 19.3474 -90.1547 
vt 131.752 -90.1939 
vt 131.747 -90.2359 
vt 21.2974 -90.2359 
vt 19.3474 -90.2359 
vt 21.2974 -90.278 
vt 131.752 -90.278 
vt 131.768 -90.3172 
vt 21.2974 -90.3172 
vt 19.3474 -90.278 
vt 21.2974 -90.3508 
vt 19.3474 -90.3508 
vt 131.794 -90.3508 
vt -17.826 131.881 
vt -17.826 131.847 
vt -15.876 131.881 
vt 131.828 -90.3767 
vt 131.867 -90.3929 
vt -17.826 131.92 
vt -17.826 131.962 
vt -15.876 131.92 
vt 131.909 -90.3984 
vt -17.826 132.004 
vt -15.876 131.962 
vt 131.951 -90.3929 
vt 131.99 -90.3767 
vt -17.826 132.043 
vt -15.876 132.043 
vt -17.826 132.077 
vt 132.024 -90.3508 
vt -17.826 -90.3172 
vt -17.826 -90.3508 
vt -15.876 -90.3172 
vt 132.05 -90.3172 
vt 132.066 -90.278 
vt -17.826 -90.278 
vt -17.826 -90.2359 
vt -15.876 -90.278 
vt 132.072 -90.2359 
vt 132.066 -90.1939 
vt -17.826 -90.1939 
vt -15.876 -90.1939 
vt -17.826 -90.1547 
vt 132.05 -90.1547 
vt -17.826 -90.121 
vt -15.876 -90.1547 
vt 132.024 -90.121 
vt 131.99 -90.0952 
vt 21.2974 132.043 
vt 21.2974 132.077 
vt 19.3474 132.043 
vt 21.2974 132.004 
vt 19.3474 132.004 
vt 131.951 -90.079 
vt 19.3474 131.637 
vt 19.2174 131.637 
vt 131.741 -89.6081 
vt 131.584 -89.673 
vt 131.828 -90.0952 
vt 19.3474 131.503 
vt 131.45 -89.7763 
vt 19.3474 -89.7763 
vt 131.346 -89.9109 
vt 131.259 -90.2359 
vt 131.281 -90.4042 
vt 131.346 -90.5609 
vt 131.747 -90.2359 
vt 19.2174 131.503 
vt 131.909 -90.0734 
vt 131.951 -90.079 
vt 131.909 -89.5859 
vt 19.3474 131.962 
vt 131.867 -90.079 
vt 132.077 -89.6081 
vt 132.472 -89.9109 
vt 132.369 -89.7763 
vt 132.05 -90.1547 
vt 131.99 -90.0952 
vt 132.234 -89.673 
vt 132.066 -90.1939 
vt 132.537 -90.4042 
vt 132.559 -90.2359 
vt 132.066 -90.278 
vt 132.537 -90.0677 
vt -15.876 -90.121 
vt 19.3474 132.077 
vt 132.024 -90.121 
vt 132.072 -90.2359 
vt 132.369 -90.6956 
vt 132.472 -90.5609 
vt 132.05 -90.3172 
vt -15.746 -90.5609 
vt -15.876 -90.2359 
vt 132.234 -90.7989 
vt 131.99 -90.3767 
vt -15.746 132.287 
vt -15.746 132.13 
vt 131.909 -90.8859 
vt 132.077 -90.8638 
vt 131.909 -90.3984 
vt -15.876 132.077 
vt -15.876 -90.3508 
vt 132.024 -90.3508 
vt 131.584 -90.7989 
vt 131.741 -90.8638 
vt 131.867 -90.3929 
vt 131.951 -90.3929 
vt -15.876 132.004 
vt 131.828 -90.3767 
vt 131.794 -90.3508 
vt -15.876 131.847 
vt 131.45 -90.6956 
vt 131.768 -90.3172 
vt 19.3474 -90.3172 
vt 131.752 -90.278 
vt 131.752 -90.1939 
vt 19.3474 -90.1939 
vt 131.768 -90.1547 
vt 131.794 -90.121 
vt 19.3474 131.881 
vt -128.113 -89.673 
vt -128.27 -89.6081 
vt -128.763 -90.7989 
vt -129.001 -90.5609 
vt -128.897 -90.6956 
vt -128.438 -90.8859 
vt -128.606 -90.8638 
vt 131.281 -90.0677 

usemtl Union1Mtl

f 1/1/1 2/2/2 3/3/3 
f 4/4/4 5/5/5 6/6/6 
f 7/7/7 1/1/1 8/8/8 
f 9/9/9 10/10/10 11/11/11 
f 12/12/12 13/13/13 14/14/14 
f 15/15/15 9/9/9 11/11/11 
f 13/13/13 16/16/16 14/14/14 
f 17/17/17 18/18/18 19/19/19 
f 20/20/20 21/21/21 22/22/22 
f 23/23/23 24/24/24 25/25/25 
f 26/26/26 22/22/22 21/21/21 
f 27/27/27 28/28/28 29/29/29 
f 22/22/22 30/30/30 20/20/20 
f 31/31/31 27/27/27 32/32/32 
f 30/30/30 33/33/33 4/4/4 
f 34/34/34 31/31/31 35/35/35 
f 33/33/33 36/36/36 37/37/37 
f 38/38/38 39/39/39 40/40/40 
f 41/41/41 4/4/4 42/42/42 
f 43/43/43 18/18/18 44/44/44 
f 18/18/18 43/43/43 19/19/19 
f 19/19/19 24/24/24 17/17/17 
f 24/24/24 19/19/19 25/25/25 
f 45/45/45 23/23/23 25/25/25 
f 32/32/32 27/27/27 46/46/46 
f 31/31/31 32/32/32 35/35/35 
f 47/47/47 48/48/48 35/35/35 
f 48/48/48 47/47/47 49/49/49 
f 50/50/50 51/51/51 49/49/49 
f 52/52/52 53/53/53 54/54/54 
f 55/55/55 56/56/56 57/57/57 
f 56/56/56 55/55/55 58/58/58 
f 59/59/59 58/58/58 60/60/60 
f 58/58/58 59/59/59 39/39/39 
f 39/39/39 59/59/59 40/40/40 
f 1/1/1 61/61/61 8/8/8 
f 61/61/61 1/1/1 3/3/3 
f 10/10/10 62/62/62 63/63/63 
f 62/62/62 10/10/10 64/64/64 
f 10/10/10 63/63/63 11/11/11 
f 44/44/44 18/18/18 65/65/65 
f 66/66/66 67/67/67 68/68/68 
f 69/69/69 70/70/70 71/71/71 
f 72/72/72 66/66/66 68/68/68 
f 73/73/73 72/72/72 74/74/74 
f 71/71/71 75/75/75 76/76/76 
f 77/77/77 78/78/78 79/79/79 
f 80/80/80 77/77/77 81/81/81 
f 76/76/76 82/82/82 83/83/83 
f 84/84/84 80/80/80 85/85/85 
f 86/86/86 84/84/84 85/85/85 
f 83/83/83 87/87/87 88/88/88 
f 89/89/89 86/86/86 90/90/90 
f 91/91/91 89/89/89 92/92/92 
f 88/88/88 93/93/93 76/76/76 
f 94/94/94 95/95/95 96/96/96 
f 93/93/93 97/97/97 98/98/98 
f 99/99/99 94/94/94 96/96/96 
f 100/100/100 99/99/99 101/101/101 
f 98/98/98 102/102/102 93/93/93 
f 103/103/103 100/100/100 104/104/104 
f 102/102/102 105/105/105 106/106/106 
f 107/107/107 103/103/103 108/108/108 
f 109/109/109 107/107/107 108/108/108 
f 106/106/106 110/110/110 102/102/102 
f 111/111/111 112/112/112 113/113/113 
f 110/110/110 114/114/114 115/115/115 
f 116/116/116 111/111/111 113/113/113 
f 117/117/117 116/116/116 118/118/118 
f 115/115/115 119/119/119 120/120/120 
f 121/121/121 117/117/117 122/122/122 
f 123/123/123 121/121/121 122/122/122 
f 120/120/120 124/124/124 115/115/115 
f 125/125/125 123/123/123 126/126/126 
f 124/124/124 127/127/127 128/128/128 
f 129/129/129 130/130/130 131/131/131 
f 132/132/132 129/129/129 133/133/133 
f 128/128/128 134/134/134 124/124/124 
f 67/67/67 132/132/132 133/133/133 
f 134/134/134 69/69/69 124/124/124 
f 135/135/135 44/44/44 136/136/136 
f 137/137/137 138/138/138 139/139/139 
f 140/140/140 135/135/135 136/136/136 
f 138/138/138 141/141/141 139/139/139 
f 11/11/11 142/142/142 15/15/15 
f 141/141/141 143/143/143 144/144/144 
f 8/8/8 62/62/62 64/64/64 
f 144/144/144 145/145/145 141/141/141 
f 145/145/145 146/146/146 147/147/147 
f 7/7/7 8/8/8 64/64/64 
f 148/148/148 140/140/140 136/136/136 
f 136/136/136 44/44/44 65/65/65 
f 149/149/149 150/150/150 151/151/151 
f 133/133/133 152/152/152 67/67/67 
f 67/67/67 152/152/152 68/68/68 
f 151/151/151 153/153/153 149/149/149 
f 153/153/153 151/151/151 137/137/137 
f 151/151/151 150/150/150 154/154/154 
f 29/29/29 46/46/46 27/27/27 
f 155/155/155 156/156/156 157/157/157 
f 129/129/129 131/131/131 133/133/133 
f 150/150/150 158/158/158 159/159/159 
f 155/155/155 157/157/157 160/160/160 
f 161/161/161 162/162/162 163/163/163 
f 162/162/162 164/164/164 160/160/160 
f 34/34/34 35/35/35 48/48/48 
f 165/165/165 125/125/125 126/126/126 
f 130/130/130 166/166/166 131/131/131 
f 158/158/158 167/167/167 156/156/156 
f 126/126/126 123/123/123 122/122/122 
f 167/167/167 157/157/157 156/156/156 
f 162/162/162 168/168/168 163/163/163 
f 168/168/168 162/162/162 160/160/160 
f 169/169/169 170/170/170 171/171/171 
f 170/170/170 161/161/161 163/163/163 
f 172/172/172 49/49/49 51/51/51 
f 49/49/49 172/172/172 48/48/48 
f 173/173/173 117/117/117 118/118/118 
f 117/117/117 173/173/173 122/122/122 
f 171/171/171 170/170/170 163/163/163 
f 174/174/174 169/169/169 175/175/175 
f 176/176/176 54/54/54 177/177/177 
f 54/54/54 176/176/176 52/52/52 
f 118/118/118 116/116/116 113/113/113 
f 178/178/178 179/179/179 180/180/180 
f 54/54/54 57/57/57 177/177/177 
f 179/179/179 174/174/174 175/175/175 
f 177/177/177 57/57/57 56/56/56 
f 181/181/181 109/109/109 108/108/108 
f 112/112/112 182/182/182 113/113/113 
f 171/171/171 183/183/183 169/169/169 
f 184/184/184 185/185/185 186/186/186 
f 55/55/55 60/60/60 58/58/58 
f 185/185/185 178/178/178 186/186/186 
f 179/179/179 187/187/187 180/180/180 
f 187/187/187 179/179/179 175/175/175 
f 183/183/183 175/175/175 169/169/169 
f 188/188/188 103/103/103 104/104/104 
f 103/103/103 188/188/188 108/108/108 
f 178/178/178 180/180/180 186/186/186 
f 104/104/104 100/100/100 101/101/101 
f 101/101/101 99/99/99 96/96/96 
f 184/184/184 186/186/186 189/189/189 
f 184/184/184 189/189/189 190/190/190 
f 95/95/95 191/191/191 96/96/96 
f 184/184/184 190/190/190 192/192/192 
f 190/190/190 193/193/193 192/192/192 
f 194/194/194 92/92/92 89/89/89 
f 194/194/194 89/89/89 90/90/90 
f 193/193/193 195/195/195 192/192/192 
f 90/90/90 86/86/86 85/85/85 
f 195/195/195 147/147/147 146/146/146 
f 192/192/192 195/195/195 146/146/146 
f 147/147/147 196/196/196 145/145/145 
f 197/197/197 85/85/85 80/80/80 
f 197/197/197 80/80/80 81/81/81 
f 141/141/141 198/198/198 199/199/199 
f 198/198/198 141/141/141 196/196/196 
f 81/81/81 77/77/77 79/79/79 
f 141/141/141 199/199/199 139/139/139 
f 200/200/200 72/72/72 68/68/68 
f 72/72/72 200/200/200 74/74/74 
f 137/137/137 139/139/139 153/153/153 
f 4/4/4 6/6/6 16/16/16 
f 16/16/16 6/6/6 14/14/14 
f 4/4/4 16/16/16 30/30/30 
f 20/20/20 16/16/16 201/201/201 
f 16/16/16 20/20/20 30/30/30 
f 20/20/20 201/201/201 202/202/202 
f 4/4/4 33/33/33 203/203/203 
f 33/33/33 37/37/37 204/204/204 
f 33/33/33 204/204/204 203/203/203 
f 203/203/203 204/204/204 205/205/205 
f 4/4/4 203/203/203 206/206/206 
f 206/206/206 203/203/203 207/207/207 
f 4/4/4 206/206/206 42/42/42 
f 159/159/159 154/154/154 150/150/150 
f 156/156/156 159/159/159 158/158/158 
f 164/164/164 155/155/155 160/160/160 
f 208/208/208 144/144/144 143/143/143 
f 69/69/69 71/71/71 76/76/76 
f 69/69/69 76/76/76 102/102/102 
f 76/76/76 83/83/83 88/88/88 
f 76/76/76 93/93/93 102/102/102 
f 69/69/69 102/102/102 124/124/124 
f 102/102/102 110/110/110 115/115/115 
f 102/102/102 115/115/115 124/124/124 
f 141/141/141 145/145/145 196/196/196 

