# Blender v2.80 (sub 75) OBJ File: 'obsticale.blend'
# www.blender.org
mtllib obsticale.mtl
o Cube.000_Cube.005
v 0.762849 0.306384 2.416110
v 0.762849 0.306384 3.096369
v 0.762849 0.306384 1.705608
v 0.762848 0.306384 1.025349
v 0.279548 0.306384 3.096369
v 0.279548 0.306384 2.416110
v 0.279547 0.306384 1.705608
v -0.237614 0.306384 3.096369
v -0.237614 0.306384 2.416111
v -0.237614 0.306384 1.705609
v -0.720915 0.306384 3.096369
v -0.720916 0.306384 2.416111
v -0.720916 0.306384 1.705609
v -0.720916 0.306384 1.025350
v -0.237615 0.306384 1.025350
v 0.279547 0.306384 1.025350
v 0.279548 0.842925 3.096369
v 0.279548 0.842925 2.416111
v 0.279547 0.842926 1.705609
v 0.279547 0.842926 1.025350
v -0.237614 0.842925 3.096370
v -0.237614 0.842925 2.416111
v -0.237614 0.842926 1.705609
v -0.237615 0.842926 1.025350
v -0.720916 0.842925 2.416111
v -0.720916 0.842926 1.705609
v 0.762849 0.842925 2.416110
v 0.762849 0.842926 1.705608
v 0.762849 0.842925 3.096369
v 0.762848 0.842926 1.025350
v -0.720915 0.842925 3.096370
v -0.720916 0.842926 1.025350
v -0.720915 0.306384 3.479936
v -0.237614 0.306384 3.479936
v 0.279548 0.306384 3.479936
v 0.762849 0.306384 3.479936
v -0.720915 0.842925 3.479937
v -0.237614 0.842925 3.479936
v 0.279548 0.842925 3.479936
v 0.762849 0.842925 3.479936
v -0.720915 0.842925 3.479937
v -0.237614 0.842925 3.479936
v 0.279548 0.842925 3.479936
v 0.762849 0.842925 3.479936
v -0.720915 0.564154 3.906689
v 0.762849 0.562755 3.906688
v 0.279548 0.563211 3.906688
v -0.237614 0.563698 3.906689
v -0.237614 0.540724 3.479936
v 0.762849 0.539865 3.479936
v -0.720915 0.541139 3.479937
v 0.279548 0.540280 3.479936
vt 0.517857 0.100763
vt 0.517857 0.116721
vt 0.551233 0.116721
vt 0.551233 0.100763
vt 0.517857 0.133387
vt 0.551233 0.133387
vt 0.517857 0.149344
vt 0.551233 0.149344
vt 0.482143 0.100763
vt 0.482143 0.116721
vt 0.482143 0.133387
vt 0.482143 0.149344
vt 0.448767 0.100763
vt 0.448767 0.116721
vt 0.448767 0.133387
vt 0.448767 0.149344
vt 0.517857 0.100763
vt 0.551233 0.100763
vt 0.551233 0.116721
vt 0.517857 0.116721
vt 0.551233 0.133387
vt 0.517857 0.133387
vt 0.551233 0.149344
vt 0.517857 0.149344
vt 0.482143 0.100763
vt 0.482143 0.116721
vt 0.482143 0.133387
vt 0.482143 0.149344
vt 0.448767 0.100763
vt 0.448767 0.116721
vt 0.448767 0.133387
vt 0.448767 0.149344
vt 0.551233 0.100763
vt 0.551233 0.100763
vt 0.551233 0.100763
vt 0.551233 0.100763
vt 0.448767 0.100763
vt 0.448767 0.100763
vt 0.448767 0.100763
vt 0.448767 0.100763
vt 0.517857 0.100763
vt 0.517857 0.100763
vt 0.517857 0.100763
vt 0.482143 0.100763
vt 0.482143 0.100763
vt 0.482143 0.100763
vt 0.517857 0.100763
vt 0.482143 0.100763
vt 0.448767 0.100763
vt 0.482143 0.100763
vt 0.517857 0.100763
vt 0.551233 0.100763
vn 0.0000 1.0000 0.0000
vn -0.0000 -1.0000 -0.0000
vn 1.0000 0.0000 -0.0000
vn -1.0000 -0.0000 0.0000
vn 0.0000 -0.0000 1.0000
vn 0.0009 0.9986 -0.0538
vn 0.0009 0.9986 -0.0536
vn 0.0009 0.9986 -0.0537
vn -0.0004 -0.8370 -0.5472
vn -0.0004 -0.8362 -0.5485
vn -0.0004 -0.8366 -0.5479
vn 0.0000 0.0000 -1.0000
usemtl Material.001
s off
f 8/1/1 9/2/1 12/3/1 11/4/1
f 9/2/1 10/5/1 13/6/1 12/3/1
f 10/5/1 15/7/1 14/8/1 13/6/1
f 5/9/1 6/10/1 9/2/1 8/1/1
f 6/10/1 7/11/1 10/5/1 9/2/1
f 7/11/1 16/12/1 15/7/1 10/5/1
f 2/13/1 1/14/1 6/10/1 5/9/1
f 1/14/1 3/15/1 7/11/1 6/10/1
f 3/15/1 4/16/1 16/12/1 7/11/1
f 21/17/2 31/18/2 25/19/2 22/20/2
f 22/20/2 25/19/2 26/21/2 23/22/2
f 23/22/2 26/21/2 32/23/2 24/24/2
f 17/25/2 21/17/2 22/20/2 18/26/2
f 18/26/2 22/20/2 23/22/2 19/27/2
f 19/27/2 23/22/2 24/24/2 20/28/2
f 29/29/2 17/25/2 18/26/2 27/30/2
f 27/30/2 18/26/2 19/27/2 28/31/2
f 28/31/2 19/27/2 20/28/2 30/32/2
f 13/6/3 14/8/3 32/23/3 26/21/3
f 4/16/4 3/15/4 28/31/4 30/32/4
f 15/7/5 16/12/5 20/28/5 24/24/5
f 11/4/3 31/18/3 37/33/3 45/34/3 51/35/3 33/36/3
f 11/4/3 12/3/3 25/19/3 31/18/3
f 29/29/4 2/13/4 36/37/4 50/38/4 46/39/4 40/40/4
f 1/14/4 2/13/4 29/29/4 27/30/4
f 14/8/5 15/7/5 24/24/5 32/23/5
f 12/3/3 13/6/3 26/21/3 25/19/3
f 16/12/5 4/16/5 30/32/5 20/28/5
f 3/15/4 1/14/4 27/30/4 28/31/4
f 8/1/1 11/4/1 33/36/1 34/41/1
f 49/42/6 51/35/6 45/34/6 48/43/6
f 50/38/7 52/44/7 47/45/7 46/39/7
f 52/44/8 49/42/8 48/43/8 47/45/8
f 17/25/2 29/29/2 40/40/2 39/46/2
f 21/17/2 17/25/2 39/46/2 38/47/2
f 2/13/1 5/9/1 35/48/1 36/37/1
f 5/9/1 8/1/1 34/41/1 35/48/1
f 31/18/2 21/17/2 38/47/2 37/33/2
f 39/46/5 40/40/5 44/49/5 43/50/5
f 38/47/5 39/46/5 43/50/5 42/51/5
f 37/33/5 38/47/5 42/51/5 41/52/5
f 48/43/9 45/34/9 37/33/9 38/47/9
f 46/39/10 47/45/10 39/46/10 40/40/10
f 47/45/11 48/43/11 38/47/11 39/46/11
f 35/48/12 34/41/12 49/42/12 52/44/12
f 36/37/12 35/48/12 52/44/12 50/38/12
f 34/41/12 33/36/12 51/35/12 49/42/12
