# Blender v2.80 (sub 75) OBJ File: 'ramp.blend'
# www.blender.org
mtllib ramp.mtl
o Cube
v 3.000000 0.000000 -2.000000
v 3.000000 0.000000 -2.000000
v 3.000000 0.000000 2.000000
v 3.000000 0.000000 2.000000
v -3.000000 2.000000 -2.000000
v -3.000000 0.000000 -2.000000
v -3.000000 2.000000 2.000000
v -3.000000 0.000000 2.000000
v -5.500000 2.000000 -2.000000
v -5.500000 0.000000 -2.000000
v -5.500000 0.000000 2.000000
v -5.500000 2.000000 2.000000
v -3.000000 3.500000 -5.500000
v -3.000000 0.000000 -5.500000
v -5.500000 3.500000 -5.500000
v -5.500000 0.000000 -5.500000
v -3.000000 3.500000 -8.000000
v -3.000000 0.000000 -8.000000
v -5.500000 3.500000 -8.000000
v -5.500000 0.000000 -8.000000
vt 0.000000 0.605470
vt 0.212153 0.597415
vt 0.217680 0.991945
vt 0.005527 1.000000
vt 0.972235 0.395283
vt 0.972235 0.395283
vt 0.972235 0.000000
vt 0.972235 0.000000
vt 0.383615 0.592924
vt 0.583524 0.592924
vt 0.583524 0.988207
vt 0.383615 0.988207
vt 0.777879 0.592924
vt 0.777879 0.592924
vt 0.888940 0.792201
vt 0.777879 0.792201
vt 0.888940 0.875233
vt 0.777879 0.875233
vt 0.888940 0.592924
vt 1.000000 0.592924
vt 0.888940 0.792201
vt 0.888940 0.792201
vt 0.777879 0.988207
vt 0.666819 0.988207
vt 0.666819 0.592924
vt 0.777879 0.592924
vt 0.583524 0.247052
vt 0.777879 0.247052
vt 0.294793 0.596890
vt 0.300320 0.991420
vt 0.300320 0.988207
vt 0.300320 0.592924
vt 0.300320 0.246581
vt 0.217680 0.247106
vt 0.214226 0.000525
vt 0.296866 0.000000
vt 0.888940 0.592924
vt 0.777880 0.592924
vt 0.777880 0.247052
vt 0.972235 0.247052
vt 0.300320 0.247052
vt 0.383615 0.247052
vt 0.888940 0.985942
vt 0.888940 0.792201
vt 0.972235 0.792201
vt 0.972235 0.985942
vt 0.583524 0.000000
vt 0.777879 0.000000
vt 0.300320 0.000000
vt 0.383615 0.000000
vt 0.777879 0.000000
vt 0.972235 0.000000
vn 0.3162 0.9487 0.0000
vn 1.0000 0.0000 0.0000
vn 0.0000 -1.0000 0.0000
vn 0.0000 0.0000 1.0000
vn 0.0000 0.0000 -1.0000
vn -1.0000 0.0000 0.0000
vn 0.0000 1.0000 0.0000
vn 0.0000 0.9191 0.3939
usemtl Material
s off
f 1/1/1 5/2/1 7/3/1 3/4/1
f 2/5/2 1/6/2 3/7/2 4/8/2
f 6/9/3 2/10/3 4/11/3 8/12/3
f 4/13/4 3/14/4 7/15/4 8/16/4
f 8/16/4 7/15/4 12/17/4 11/18/4
f 6/19/5 5/20/5 1/21/5 2/22/5
f 11/23/6 12/24/6 9/25/6 10/26/6
f 10/26/6 9/25/6 15/27/6 16/28/6
f 7/3/7 5/2/7 9/29/7 12/30/7
f 6/9/3 8/12/3 11/31/3 10/32/3
f 15/33/7 13/34/7 17/35/7 19/36/7
f 9/29/8 5/2/8 13/34/8 15/33/8
f 5/37/2 6/38/2 14/39/2 13/40/2
f 6/9/3 10/32/3 16/41/3 14/42/3
f 17/43/5 18/44/5 20/45/5 19/46/5
f 16/28/6 15/27/6 19/47/6 20/48/6
f 14/42/3 16/41/3 20/49/3 18/50/3
f 13/40/2 14/39/2 18/51/2 17/52/2
