# Blender v2.80 (sub 75) OBJ File: 'ramp.blend'
# www.blender.org
mtllib ramp.mtl
o Cube
v 4.762862 5.001465 -10.203488
v 4.762862 -1.001465 -10.203488
v 4.762862 -1.010359 1.000000
v 4.762862 -1.001465 1.000000
v -4.762862 5.001465 -10.203488
v -4.762862 -1.001465 -10.203488
v -4.762862 -1.010359 1.000000
v -4.762862 -1.001465 1.000000
v 4.762862 -1.001465 -20.203487
v -4.762862 -1.001465 -20.203487
v 4.762862 5.001465 -20.203487
v -4.762862 5.001465 -20.203487
v -14.762862 11.900685 -10.203488
v -14.762862 -1.001465 -10.203488
v -14.762862 11.900685 -20.203487
v -14.762862 -1.001465 -20.203487
vt 0.375000 0.000000
vt 0.625000 0.000000
vt 0.625000 0.250000
vt 0.375000 0.250000
vt 0.375000 0.250000
vt 0.625000 0.250000
vt 0.625000 0.500000
vt 0.375000 0.500000
vt 0.625000 0.750000
vt 0.375000 0.750000
vt 0.625000 0.750000
vt 0.625000 1.000000
vt 0.375000 1.000000
vt 0.125000 0.500000
vt 0.375000 0.500000
vt 0.375000 0.750000
vt 0.125000 0.750000
vt 0.375000 0.750000
vt 0.625000 0.750000
vt 0.625000 0.500000
vt 0.875000 0.500000
vt 0.875000 0.750000
vt 0.375000 0.000000
vt 0.625000 0.000000
vt 0.125000 0.500000
vt 0.375000 0.500000
vt 0.625000 0.500000
vt 0.875000 0.500000
vt 0.375000 0.750000
vt 0.625000 0.750000
vt 0.625000 0.750000
vt 0.375000 0.750000
vt 0.625000 0.000000
vt 0.625000 0.000000
vn 0.0000 0.8812 0.4728
vn 0.0000 0.0000 -1.0000
vn -1.0000 0.0000 0.0000
vn 0.0000 -1.0000 0.0000
vn 1.0000 0.0000 0.0000
vn 0.0000 1.0000 0.0000
vn 0.5679 0.8231 0.0000
vn 0.0000 0.0000 1.0000
usemtl Material
s off
f 1/1/1 5/2/1 7/3/1 3/4/1
f 4/5/2 3/6/2 7/7/2 8/8/2
f 8/8/3 7/7/3 5/9/3 6/10/3
f 6/10/4 2/11/4 4/12/4 8/13/4
f 2/14/5 1/15/5 3/16/5 4/17/5
f 2/11/4 6/10/4 10/18/4 9/19/4
f 10/20/2 12/21/2 11/22/2 9/19/2
f 5/2/6 1/1/6 11/23/6 12/24/6
f 1/15/5 2/14/5 9/25/5 11/26/5
f 12/21/2 10/20/2 16/27/2 15/28/2
f 14/29/3 13/30/3 15/31/3 16/32/3
f 5/2/7 12/24/7 15/33/7 13/34/7
f 6/10/8 5/9/8 13/30/8 14/29/8
f 10/18/4 6/10/4 14/29/4 16/32/4
